<?xml version="1.0" encoding="UTF-8" standalone="no"?>
<!DOCTYPE svg PUBLIC "-//W3C//DTD SVG 1.1//EN"
 "http://www.w3.org/Graphics/SVG/1.1/DTD/svg11.dtd">
<!-- Generated by graphviz version 2.44.1 (20200629.0846)
 -->
<!-- Title: dependencies Pages: 1 -->
<svg width="3145pt" height="349pt"
 viewBox="0.00 0.00 3145.00 349.00" xmlns="http://www.w3.org/2000/svg" xmlns:xlink="http://www.w3.org/1999/xlink">
<g id="graph0" class="graph" transform="scale(1 1) rotate(0) translate(4 345)">
<title>dependencies</title>
<polygon fill="white" stroke="transparent" points="-4,4 -4,-345 3141,-345 3141,4 -4,4"/>
<text text-anchor="start" x="1547.51" y="-42.4" font-family="sans-serif" font-weight="bold" font-size="14.00">Legend</text>
<polygon fill="#ffffb3" stroke="transparent" points="1334.5,-10 1334.5,-30 1354.5,-30 1354.5,-10 1334.5,-10"/>
<text text-anchor="start" x="1358.13" y="-15.4" font-family="sans-serif" font-size="14.00"> &#160;Declarations</text>
<polygon fill="#8dd3c7" stroke="transparent" points="1447.5,-10 1447.5,-30 1467.5,-30 1467.5,-10 1447.5,-10"/>
<text text-anchor="start" x="1471.23" y="-15.4" font-family="sans-serif" font-size="14.00"> &#160;Module</text>
<polygon fill="#80b1d3" stroke="transparent" points="1533.5,-10 1533.5,-30 1553.5,-30 1553.5,-10 1533.5,-10"/>
<text text-anchor="start" x="1557.28" y="-15.4" font-family="sans-serif" font-size="14.00"> &#160;Bootstrap</text>
<polygon fill="#fdb462" stroke="transparent" points="1630.5,-10 1630.5,-30 1650.5,-30 1650.5,-10 1630.5,-10"/>
<text text-anchor="start" x="1654.17" y="-15.4" font-family="sans-serif" font-size="14.00"> &#160;Providers</text>
<polygon fill="#fb8072" stroke="transparent" points="1726.5,-10 1726.5,-30 1746.5,-30 1746.5,-10 1726.5,-10"/>
<text text-anchor="start" x="1750.23" y="-15.4" font-family="sans-serif" font-size="14.00"> &#160;Exports</text>
<g id="clust1" class="cluster">
<title>cluster_AppModule</title>
<polygon fill="none" stroke="black" stroke-dasharray="1,5" points="8,-70 8,-333 3129,-333 3129,-70 8,-70"/>
</g>
<g id="clust3" class="cluster">
<title>cluster_AppModule_AppComponent_providers</title>
<polygon fill="none" stroke="black" points="2977,-78 2977,-195 3121,-195 3121,-78 2977,-78"/>
</g>
<g id="clust2" class="cluster">
<title>cluster_AppModule_declarations</title>
<polygon fill="none" stroke="black" points="2247,-143 2247,-195 2969,-195 2969,-143 2247,-143"/>
</g>
<g id="clust9" class="cluster">
<title>cluster_AppModule_imports</title>
<polygon fill="none" stroke="black" points="16,-143 16,-195 2239,-195 2239,-143 16,-143"/>
</g>
<g id="clust11" class="cluster">
<title>cluster_AppModule_bootstrap</title>
<polygon fill="none" stroke="black" points="1449,-273 1449,-325 1573,-325 1573,-273 1449,-273"/>
</g>
<!-- AppComponent -->
<g id="node1" class="node">
<title>AppComponent</title>
<polygon fill="#ffffb3" stroke="black" points="3095.94,-187 2990.06,-187 2990.06,-151 3095.94,-151 3095.94,-187"/>
<text text-anchor="middle" x="3043" y="-164.8" font-family="Times,serif" font-size="14.00">AppComponent</text>
</g>
<!-- AppModule -->
<g id="node7" class="node">
<title>AppModule</title>
<polygon fill="#8dd3c7" stroke="black" points="1552.66,-252 1549.66,-256 1528.66,-256 1525.66,-252 1469.34,-252 1469.34,-216 1552.66,-216 1552.66,-252"/>
<text text-anchor="middle" x="1511" y="-229.8" font-family="Times,serif" font-size="14.00">AppModule</text>
</g>
<!-- AppComponent&#45;&gt;AppModule -->
<g id="edge1" class="edge">
<title>AppComponent&#45;&gt;AppModule</title>
<path fill="none" stroke="black" d="M3043,-187.15C3043,-210.76 3043,-249 3043,-249 3043,-249 1562.77,-249 1562.77,-249"/>
<polygon fill="black" stroke="black" points="1562.77,-245.5 1552.77,-249 1562.77,-252.5 1562.77,-245.5"/>
</g>
<!-- RoomComponent -->
<g id="node2" class="node">
<title>RoomComponent</title>
<polygon fill="#ffffb3" stroke="black" points="2960.56,-187 2845.44,-187 2845.44,-151 2960.56,-151 2960.56,-187"/>
<text text-anchor="middle" x="2903" y="-164.8" font-family="Times,serif" font-size="14.00">RoomComponent</text>
</g>
<!-- RoomComponent&#45;&gt;AppModule -->
<g id="edge3" class="edge">
<title>RoomComponent&#45;&gt;AppModule</title>
<path fill="none" stroke="black" d="M2903,-187.25C2903,-210.02 2903,-246 2903,-246 2903,-246 1562.66,-246 1562.66,-246"/>
<polygon fill="black" stroke="black" points="1562.66,-242.5 1552.66,-246 1562.66,-249.5 1562.66,-242.5"/>
</g>
<!-- RoomsComponent -->
<g id="node3" class="node">
<title>RoomsComponent</title>
<polygon fill="#ffffb3" stroke="black" points="2827.5,-187 2706.5,-187 2706.5,-151 2827.5,-151 2827.5,-187"/>
<text text-anchor="middle" x="2767" y="-164.8" font-family="Times,serif" font-size="14.00">RoomsComponent</text>
</g>
<!-- RoomsComponent&#45;&gt;AppModule -->
<g id="edge4" class="edge">
<title>RoomsComponent&#45;&gt;AppModule</title>
<path fill="none" stroke="black" d="M2767,-187.29C2767,-209.21 2767,-243 2767,-243 2767,-243 1562.79,-243 1562.79,-243"/>
<polygon fill="black" stroke="black" points="1562.79,-239.5 1552.79,-243 1562.79,-246.5 1562.79,-239.5"/>
</g>
<!-- WrapperDataFormatingComponent -->
<g id="node4" class="node">
<title>WrapperDataFormatingComponent</title>
<polygon fill="#ffffb3" stroke="black" points="2688.55,-187 2473.45,-187 2473.45,-151 2688.55,-151 2688.55,-187"/>
<text text-anchor="middle" x="2581" y="-164.8" font-family="Times,serif" font-size="14.00">WrapperDataFormatingComponent</text>
</g>
<!-- WrapperDataFormatingComponent&#45;&gt;AppModule -->
<g id="edge5" class="edge">
<title>WrapperDataFormatingComponent&#45;&gt;AppModule</title>
<path fill="none" stroke="black" d="M2581,-187.03C2581,-207.77 2581,-239 2581,-239 2581,-239 1562.95,-239 1562.95,-239"/>
<polygon fill="black" stroke="black" points="1562.95,-235.5 1552.95,-239 1562.95,-242.5 1562.95,-235.5"/>
</g>
<!-- AddrezzComponent -->
<g id="node5" class="node">
<title>AddrezzComponent</title>
<polygon fill="#ffffb3" stroke="black" points="2455.24,-187 2326.76,-187 2326.76,-151 2455.24,-151 2455.24,-187"/>
<text text-anchor="middle" x="2391" y="-164.8" font-family="Times,serif" font-size="14.00">AddrezzComponent</text>
</g>
<!-- AddrezzComponent&#45;&gt;AppModule -->
<g id="edge6" class="edge">
<title>AddrezzComponent&#45;&gt;AppModule</title>
<path fill="none" stroke="black" d="M2391,-187.31C2391,-207.15 2391,-236 2391,-236 2391,-236 1562.85,-236 1562.85,-236"/>
<polygon fill="black" stroke="black" points="1562.85,-232.5 1552.85,-236 1562.85,-239.5 1562.85,-232.5"/>
</g>
<!-- Slider -->
<g id="node6" class="node">
<title>Slider</title>
<polygon fill="#ffffb3" stroke="black" points="2309,-187 2255,-187 2255,-151 2309,-151 2309,-187"/>
<text text-anchor="middle" x="2282" y="-164.8" font-family="Times,serif" font-size="14.00">Slider</text>
</g>
<!-- Slider&#45;&gt;AppModule -->
<g id="edge7" class="edge">
<title>Slider&#45;&gt;AppModule</title>
<path fill="none" stroke="black" d="M2282,-187.17C2282,-206.09 2282,-233 2282,-233 2282,-233 1562.73,-233 1562.73,-233"/>
<polygon fill="black" stroke="black" points="1562.73,-229.5 1552.73,-233 1562.73,-236.5 1562.73,-229.5"/>
</g>
<!-- AppComponent  -->
<g id="node25" class="node">
<title>AppComponent </title>
<polygon fill="#80b1d3" stroke="black" points="1565.44,-317 1456.56,-317 1456.56,-281 1565.44,-281 1565.44,-317"/>
<text text-anchor="middle" x="1511" y="-294.8" font-family="Times,serif" font-size="14.00">AppComponent </text>
</g>
<!-- AppModule&#45;&gt;AppComponent  -->
<g id="edge24" class="edge">
<title>AppModule&#45;&gt;AppComponent </title>
<path fill="none" stroke="black" stroke-dasharray="1,5" d="M1511,-252.11C1511,-252.11 1511,-270.99 1511,-270.99"/>
<polygon fill="black" stroke="black" points="1507.5,-270.99 1511,-280.99 1514.5,-270.99 1507.5,-270.99"/>
</g>
<!-- RoomService -->
<g id="node8" class="node">
<title>RoomService</title>
<ellipse fill="#fdb462" stroke="black" cx="3049" cy="-104" rx="63.7" ry="18"/>
<text text-anchor="middle" x="3049" y="-99.8" font-family="Times,serif" font-size="14.00">RoomService</text>
</g>
<!-- RoomService&#45;&gt;AppComponent -->
<g id="edge2" class="edge">
<title>RoomService&#45;&gt;AppComponent</title>
<path fill="none" stroke="black" d="M3043,-122.11C3043,-122.11 3043,-140.99 3043,-140.99"/>
<polygon fill="black" stroke="black" points="3039.5,-140.99 3043,-150.99 3046.5,-140.99 3039.5,-140.99"/>
</g>
<!-- BrowserModule -->
<g id="node9" class="node">
<title>BrowserModule</title>
<polygon fill="#8dd3c7" stroke="black" points="2231.47,-187 2228.47,-191 2207.47,-191 2204.47,-187 2124.53,-187 2124.53,-151 2231.47,-151 2231.47,-187"/>
<text text-anchor="middle" x="2178" y="-164.8" font-family="Times,serif" font-size="14.00">BrowserModule</text>
</g>
<!-- BrowserModule&#45;&gt;AppModule -->
<g id="edge8" class="edge">
<title>BrowserModule&#45;&gt;AppModule</title>
<path fill="none" stroke="black" d="M2178,-187.3C2178,-205.27 2178,-230 2178,-230 2178,-230 1562.72,-230 1562.72,-230"/>
<polygon fill="black" stroke="black" points="1562.72,-226.5 1552.72,-230 1562.72,-233.5 1562.72,-226.5"/>
</g>
<!-- AppRoutingModule -->
<g id="node10" class="node">
<title>AppRoutingModule</title>
<polygon fill="#8dd3c7" stroke="black" points="2106.27,-187 2103.27,-191 2082.27,-191 2079.27,-187 1977.73,-187 1977.73,-151 2106.27,-151 2106.27,-187"/>
<text text-anchor="middle" x="2042" y="-164.8" font-family="Times,serif" font-size="14.00">AppRoutingModule</text>
</g>
<!-- AppRoutingModule&#45;&gt;AppModule -->
<g id="edge9" class="edge">
<title>AppRoutingModule&#45;&gt;AppModule</title>
<path fill="none" stroke="black" d="M2042,-187.04C2042,-203.73 2042,-226 2042,-226 2042,-226 1562.67,-226 1562.67,-226"/>
<polygon fill="black" stroke="black" points="1562.67,-222.5 1552.67,-226 1562.67,-229.5 1562.67,-222.5"/>
</g>
<!-- BrowserAnimationsModule -->
<g id="node11" class="node">
<title>BrowserAnimationsModule</title>
<polygon fill="#8dd3c7" stroke="black" points="1959.3,-187 1956.3,-191 1935.3,-191 1932.3,-187 1786.7,-187 1786.7,-151 1959.3,-151 1959.3,-187"/>
<text text-anchor="middle" x="1873" y="-164.8" font-family="Times,serif" font-size="14.00">BrowserAnimationsModule</text>
</g>
<!-- BrowserAnimationsModule&#45;&gt;AppModule -->
<g id="edge10" class="edge">
<title>BrowserAnimationsModule&#45;&gt;AppModule</title>
<path fill="none" stroke="black" d="M1873,-187.28C1873,-202.95 1873,-223 1873,-223 1873,-223 1562.88,-223 1562.88,-223"/>
<polygon fill="black" stroke="black" points="1562.88,-219.5 1552.88,-223 1562.88,-226.5 1562.88,-219.5"/>
</g>
<!-- MatInputModule -->
<g id="node12" class="node">
<title>MatInputModule</title>
<polygon fill="#8dd3c7" stroke="black" points="1768.65,-187 1765.65,-191 1744.65,-191 1741.65,-187 1657.35,-187 1657.35,-151 1768.65,-151 1768.65,-187"/>
<text text-anchor="middle" x="1713" y="-164.8" font-family="Times,serif" font-size="14.00">MatInputModule</text>
</g>
<!-- MatInputModule&#45;&gt;AppModule -->
<g id="edge11" class="edge">
<title>MatInputModule&#45;&gt;AppModule</title>
<path fill="none" stroke="black" d="M1713,-187.12C1713,-201.78 1713,-220 1713,-220 1713,-220 1562.85,-220 1562.85,-220"/>
<polygon fill="black" stroke="black" points="1562.85,-216.5 1552.85,-220 1562.85,-223.5 1562.85,-216.5"/>
</g>
<!-- MatButtonModule -->
<g id="node13" class="node">
<title>MatButtonModule</title>
<polygon fill="#8dd3c7" stroke="black" points="1639.22,-187 1636.22,-191 1615.22,-191 1612.22,-187 1518.78,-187 1518.78,-151 1639.22,-151 1639.22,-187"/>
<text text-anchor="middle" x="1579" y="-164.8" font-family="Times,serif" font-size="14.00">MatButtonModule</text>
</g>
<!-- MatButtonModule&#45;&gt;AppModule -->
<g id="edge12" class="edge">
<title>MatButtonModule&#45;&gt;AppModule</title>
<path fill="none" stroke="black" d="M1535.86,-187.11C1535.86,-187.11 1535.86,-205.99 1535.86,-205.99"/>
<polygon fill="black" stroke="black" points="1532.36,-205.99 1535.86,-215.99 1539.36,-205.99 1532.36,-205.99"/>
</g>
<!-- MatSelectModule -->
<g id="node14" class="node">
<title>MatSelectModule</title>
<polygon fill="#8dd3c7" stroke="black" points="1501.31,-187 1498.31,-191 1477.31,-191 1474.31,-187 1384.69,-187 1384.69,-151 1501.31,-151 1501.31,-187"/>
<text text-anchor="middle" x="1443" y="-164.8" font-family="Times,serif" font-size="14.00">MatSelectModule</text>
</g>
<!-- MatSelectModule&#45;&gt;AppModule -->
<g id="edge13" class="edge">
<title>MatSelectModule&#45;&gt;AppModule</title>
<path fill="none" stroke="black" d="M1485.16,-187.11C1485.16,-187.11 1485.16,-205.99 1485.16,-205.99"/>
<polygon fill="black" stroke="black" points="1481.66,-205.99 1485.16,-215.99 1488.66,-205.99 1481.66,-205.99"/>
</g>
<!-- MatRadioModule -->
<g id="node15" class="node">
<title>MatRadioModule</title>
<polygon fill="#8dd3c7" stroke="black" points="1366.54,-187 1363.54,-191 1342.54,-191 1339.54,-187 1251.46,-187 1251.46,-151 1366.54,-151 1366.54,-187"/>
<text text-anchor="middle" x="1309" y="-164.8" font-family="Times,serif" font-size="14.00">MatRadioModule</text>
</g>
<!-- MatRadioModule&#45;&gt;AppModule -->
<g id="edge14" class="edge">
<title>MatRadioModule&#45;&gt;AppModule</title>
<path fill="none" stroke="black" d="M1309,-187.12C1309,-201.78 1309,-220 1309,-220 1309,-220 1459.15,-220 1459.15,-220"/>
<polygon fill="black" stroke="black" points="1459.15,-223.5 1469.15,-220 1459.15,-216.5 1459.15,-223.5"/>
</g>
<!-- MatCardModule -->
<g id="node16" class="node">
<title>MatCardModule</title>
<polygon fill="#8dd3c7" stroke="black" points="1233.81,-187 1230.81,-191 1209.81,-191 1206.81,-187 1124.19,-187 1124.19,-151 1233.81,-151 1233.81,-187"/>
<text text-anchor="middle" x="1179" y="-164.8" font-family="Times,serif" font-size="14.00">MatCardModule</text>
</g>
<!-- MatCardModule&#45;&gt;AppModule -->
<g id="edge15" class="edge">
<title>MatCardModule&#45;&gt;AppModule</title>
<path fill="none" stroke="black" d="M1179,-187.28C1179,-202.95 1179,-223 1179,-223 1179,-223 1459.29,-223 1459.29,-223"/>
<polygon fill="black" stroke="black" points="1459.29,-226.5 1469.29,-223 1459.29,-219.5 1459.29,-226.5"/>
</g>
<!-- ReactiveFormsModule -->
<g id="node17" class="node">
<title>ReactiveFormsModule</title>
<polygon fill="#8dd3c7" stroke="black" points="1106.3,-187 1103.3,-191 1082.3,-191 1079.3,-187 961.7,-187 961.7,-151 1106.3,-151 1106.3,-187"/>
<text text-anchor="middle" x="1034" y="-164.8" font-family="Times,serif" font-size="14.00">ReactiveFormsModule</text>
</g>
<!-- ReactiveFormsModule&#45;&gt;AppModule -->
<g id="edge16" class="edge">
<title>ReactiveFormsModule&#45;&gt;AppModule</title>
<path fill="none" stroke="black" d="M1034,-187.04C1034,-203.73 1034,-226 1034,-226 1034,-226 1459.09,-226 1459.09,-226"/>
<polygon fill="black" stroke="black" points="1459.09,-229.5 1469.09,-226 1459.09,-222.5 1459.09,-229.5"/>
</g>
<!-- FormsModule -->
<g id="node18" class="node">
<title>FormsModule</title>
<polygon fill="#8dd3c7" stroke="black" points="943.83,-187 940.83,-191 919.83,-191 916.83,-187 848.17,-187 848.17,-151 943.83,-151 943.83,-187"/>
<text text-anchor="middle" x="896" y="-164.8" font-family="Times,serif" font-size="14.00">FormsModule</text>
</g>
<!-- FormsModule&#45;&gt;AppModule -->
<g id="edge17" class="edge">
<title>FormsModule&#45;&gt;AppModule</title>
<path fill="none" stroke="black" d="M896,-187.3C896,-205.27 896,-230 896,-230 896,-230 1459.21,-230 1459.21,-230"/>
<polygon fill="black" stroke="black" points="1459.21,-233.5 1469.21,-230 1459.21,-226.5 1459.21,-233.5"/>
</g>
<!-- MatSliderModule -->
<g id="node19" class="node">
<title>MatSliderModule</title>
<polygon fill="#8dd3c7" stroke="black" points="830.54,-187 827.54,-191 806.54,-191 803.54,-187 715.46,-187 715.46,-151 830.54,-151 830.54,-187"/>
<text text-anchor="middle" x="773" y="-164.8" font-family="Times,serif" font-size="14.00">MatSliderModule</text>
</g>
<!-- MatSliderModule&#45;&gt;AppModule -->
<g id="edge18" class="edge">
<title>MatSliderModule&#45;&gt;AppModule</title>
<path fill="none" stroke="black" d="M773,-187.17C773,-206.09 773,-233 773,-233 773,-233 1459.21,-233 1459.21,-233"/>
<polygon fill="black" stroke="black" points="1459.21,-236.5 1469.21,-233 1459.21,-229.5 1459.21,-236.5"/>
</g>
<!-- MatSlideToggleModule -->
<g id="node20" class="node">
<title>MatSlideToggleModule</title>
<polygon fill="#8dd3c7" stroke="black" points="697.04,-187 694.04,-191 673.04,-191 670.04,-187 546.96,-187 546.96,-151 697.04,-151 697.04,-187"/>
<text text-anchor="middle" x="622" y="-164.8" font-family="Times,serif" font-size="14.00">MatSlideToggleModule</text>
</g>
<!-- MatSlideToggleModule&#45;&gt;AppModule -->
<g id="edge19" class="edge">
<title>MatSlideToggleModule&#45;&gt;AppModule</title>
<path fill="none" stroke="black" d="M622,-187.31C622,-207.15 622,-236 622,-236 622,-236 1459.31,-236 1459.31,-236"/>
<polygon fill="black" stroke="black" points="1459.31,-239.5 1469.31,-236 1459.31,-232.5 1459.31,-239.5"/>
</g>
<!-- MatGridListModule -->
<g id="node21" class="node">
<title>MatGridListModule</title>
<polygon fill="#8dd3c7" stroke="black" points="528.54,-187 525.54,-191 504.54,-191 501.54,-187 399.46,-187 399.46,-151 528.54,-151 528.54,-187"/>
<text text-anchor="middle" x="464" y="-164.8" font-family="Times,serif" font-size="14.00">MatGridListModule</text>
</g>
<!-- MatGridListModule&#45;&gt;AppModule -->
<g id="edge20" class="edge">
<title>MatGridListModule&#45;&gt;AppModule</title>
<path fill="none" stroke="black" d="M464,-187.03C464,-207.77 464,-239 464,-239 464,-239 1459.31,-239 1459.31,-239"/>
<polygon fill="black" stroke="black" points="1459.31,-242.5 1469.31,-239 1459.31,-235.5 1459.31,-242.5"/>
</g>
<!-- MatMenuModule -->
<g id="node22" class="node">
<title>MatMenuModule</title>
<polygon fill="#8dd3c7" stroke="black" points="381.26,-187 378.26,-191 357.26,-191 354.26,-187 266.74,-187 266.74,-151 381.26,-151 381.26,-187"/>
<text text-anchor="middle" x="324" y="-164.8" font-family="Times,serif" font-size="14.00">MatMenuModule</text>
</g>
<!-- MatMenuModule&#45;&gt;AppModule -->
<g id="edge21" class="edge">
<title>MatMenuModule&#45;&gt;AppModule</title>
<path fill="none" stroke="black" d="M324,-187.29C324,-209.21 324,-243 324,-243 324,-243 1459.1,-243 1459.1,-243"/>
<polygon fill="black" stroke="black" points="1459.1,-246.5 1469.1,-243 1459.1,-239.5 1459.1,-246.5"/>
</g>
<!-- MatIconModule -->
<g id="node23" class="node">
<title>MatIconModule</title>
<polygon fill="#8dd3c7" stroke="black" points="248.47,-187 245.47,-191 224.47,-191 221.47,-187 141.53,-187 141.53,-151 248.47,-151 248.47,-187"/>
<text text-anchor="middle" x="195" y="-164.8" font-family="Times,serif" font-size="14.00">MatIconModule</text>
</g>
<!-- MatIconModule&#45;&gt;AppModule -->
<g id="edge22" class="edge">
<title>MatIconModule&#45;&gt;AppModule</title>
<path fill="none" stroke="black" d="M195,-187.25C195,-210.02 195,-246 195,-246 195,-246 1459.07,-246 1459.07,-246"/>
<polygon fill="black" stroke="black" points="1459.07,-249.5 1469.07,-246 1459.07,-242.5 1459.07,-249.5"/>
</g>
<!-- LayoutModule -->
<g id="node24" class="node">
<title>LayoutModule</title>
<polygon fill="#8dd3c7" stroke="black" points="123.71,-187 120.71,-191 99.71,-191 96.71,-187 24.29,-187 24.29,-151 123.71,-151 123.71,-187"/>
<text text-anchor="middle" x="74" y="-164.8" font-family="Times,serif" font-size="14.00">LayoutModule</text>
</g>
<!-- LayoutModule&#45;&gt;AppModule -->
<g id="edge23" class="edge">
<title>LayoutModule&#45;&gt;AppModule</title>
<path fill="none" stroke="black" d="M74,-187.15C74,-210.76 74,-249 74,-249 74,-249 1459.16,-249 1459.16,-249"/>
<polygon fill="black" stroke="black" points="1459.16,-252.5 1469.16,-249 1459.16,-245.5 1459.16,-252.5"/>
</g>
</g>
</svg>
