<?xml version="1.0" encoding="UTF-8" standalone="no"?>
<!DOCTYPE svg PUBLIC "-//W3C//DTD SVG 1.1//EN"
 "http://www.w3.org/Graphics/SVG/1.1/DTD/svg11.dtd">
<!-- Generated by graphviz version 2.44.1 (20200629.0846)
 -->
<!-- Title: dependencies Pages: 1 -->
<svg width="3459pt" height="355pt"
 viewBox="0.00 0.00 3459.00 355.00" xmlns="http://www.w3.org/2000/svg" xmlns:xlink="http://www.w3.org/1999/xlink">
<g id="graph0" class="graph" transform="scale(1 1) rotate(0) translate(4 351)">
<title>dependencies</title>
<polygon fill="white" stroke="transparent" points="-4,4 -4,-351 3455,-351 3455,4 -4,4"/>
<text text-anchor="start" x="1704.51" y="-42.4" font-family="sans-serif" font-weight="bold" font-size="14.00">Legend</text>
<polygon fill="#ffffb3" stroke="transparent" points="1491.5,-10 1491.5,-30 1511.5,-30 1511.5,-10 1491.5,-10"/>
<text text-anchor="start" x="1515.13" y="-15.4" font-family="sans-serif" font-size="14.00"> &#160;Declarations</text>
<polygon fill="#8dd3c7" stroke="transparent" points="1604.5,-10 1604.5,-30 1624.5,-30 1624.5,-10 1604.5,-10"/>
<text text-anchor="start" x="1628.23" y="-15.4" font-family="sans-serif" font-size="14.00"> &#160;Module</text>
<polygon fill="#80b1d3" stroke="transparent" points="1690.5,-10 1690.5,-30 1710.5,-30 1710.5,-10 1690.5,-10"/>
<text text-anchor="start" x="1714.28" y="-15.4" font-family="sans-serif" font-size="14.00"> &#160;Bootstrap</text>
<polygon fill="#fdb462" stroke="transparent" points="1787.5,-10 1787.5,-30 1807.5,-30 1807.5,-10 1787.5,-10"/>
<text text-anchor="start" x="1811.17" y="-15.4" font-family="sans-serif" font-size="14.00"> &#160;Providers</text>
<polygon fill="#fb8072" stroke="transparent" points="1883.5,-10 1883.5,-30 1903.5,-30 1903.5,-10 1883.5,-10"/>
<text text-anchor="start" x="1907.23" y="-15.4" font-family="sans-serif" font-size="14.00"> &#160;Exports</text>
<g id="clust1" class="cluster">
<title>cluster_AppModule</title>
<polygon fill="none" stroke="black" stroke-dasharray="1,5" points="8,-70 8,-339 3099,-339 3099,-70 8,-70"/>
</g>
<g id="clust2" class="cluster">
<title>cluster_AppModule_declarations</title>
<polygon fill="none" stroke="black" points="16,-143 16,-195 861,-195 861,-143 16,-143"/>
</g>
<g id="clust3" class="cluster">
<title>cluster_AppModule_AppComponent_providers</title>
<polygon fill="none" stroke="black" points="728,-78 728,-130 872,-130 872,-78 728,-78"/>
</g>
<g id="clust9" class="cluster">
<title>cluster_AppModule_imports</title>
<polygon fill="none" stroke="black" points="869,-143 869,-195 3091,-195 3091,-143 869,-143"/>
</g>
<g id="clust11" class="cluster">
<title>cluster_AppModule_bootstrap</title>
<polygon fill="none" stroke="black" points="1507,-279 1507,-331 1631,-331 1631,-279 1507,-279"/>
</g>
<g id="clust13" class="cluster">
<title>cluster_AppRoutingModule</title>
<polygon fill="none" stroke="black" stroke-dasharray="1,5" points="3107,-203 3107,-271 3443,-271 3443,-203 3107,-203"/>
</g>
<g id="clust15" class="cluster">
<title>cluster_AppRoutingModule_imports</title>
<polygon fill="none" stroke="black" points="3241,-211 3241,-263 3435,-263 3435,-211 3241,-211"/>
</g>
<g id="clust16" class="cluster">
<title>cluster_AppRoutingModule_exports</title>
<polygon fill="none" stroke="black" points="3115,-211 3115,-263 3233,-263 3233,-211 3115,-211"/>
</g>
<!-- AppComponent -->
<g id="node1" class="node">
<title>AppComponent</title>
<polygon fill="#ffffb3" stroke="black" points="852.94,-187 747.06,-187 747.06,-151 852.94,-151 852.94,-187"/>
<text text-anchor="middle" x="800" y="-164.8" font-family="Times,serif" font-size="14.00">AppComponent</text>
</g>
<!-- AppModule -->
<g id="node7" class="node">
<title>AppModule</title>
<polygon fill="#8dd3c7" stroke="black" points="1610.66,-255 1607.66,-259 1586.66,-259 1583.66,-255 1527.34,-255 1527.34,-219 1610.66,-219 1610.66,-255"/>
<text text-anchor="middle" x="1569" y="-232.8" font-family="Times,serif" font-size="14.00">AppModule</text>
</g>
<!-- AppComponent&#45;&gt;AppModule -->
<g id="edge1" class="edge">
<title>AppComponent&#45;&gt;AppModule</title>
<path fill="none" stroke="black" d="M800,-187.31C800,-207.15 800,-236 800,-236 800,-236 1517.11,-236 1517.11,-236"/>
<polygon fill="black" stroke="black" points="1517.11,-239.5 1527.11,-236 1517.11,-232.5 1517.11,-239.5"/>
</g>
<!-- RoomComponent -->
<g id="node2" class="node">
<title>RoomComponent</title>
<polygon fill="#ffffb3" stroke="black" points="729.56,-187 614.44,-187 614.44,-151 729.56,-151 729.56,-187"/>
<text text-anchor="middle" x="672" y="-164.8" font-family="Times,serif" font-size="14.00">RoomComponent</text>
</g>
<!-- RoomComponent&#45;&gt;AppModule -->
<g id="edge3" class="edge">
<title>RoomComponent&#45;&gt;AppModule</title>
<path fill="none" stroke="black" d="M672,-187.03C672,-207.77 672,-239 672,-239 672,-239 1517.24,-239 1517.24,-239"/>
<polygon fill="black" stroke="black" points="1517.24,-242.5 1527.24,-239 1517.24,-235.5 1517.24,-242.5"/>
</g>
<!-- RoomsComponent -->
<g id="node3" class="node">
<title>RoomsComponent</title>
<polygon fill="#ffffb3" stroke="black" points="596.5,-187 475.5,-187 475.5,-151 596.5,-151 596.5,-187"/>
<text text-anchor="middle" x="536" y="-164.8" font-family="Times,serif" font-size="14.00">RoomsComponent</text>
</g>
<!-- RoomsComponent&#45;&gt;AppModule -->
<g id="edge4" class="edge">
<title>RoomsComponent&#45;&gt;AppModule</title>
<path fill="none" stroke="black" d="M536,-187.04C536,-208.66 536,-242 536,-242 536,-242 1517.23,-242 1517.23,-242"/>
<polygon fill="black" stroke="black" points="1517.23,-245.5 1527.23,-242 1517.23,-238.5 1517.23,-245.5"/>
</g>
<!-- WrapperDataFormatingComponent -->
<g id="node4" class="node">
<title>WrapperDataFormatingComponent</title>
<polygon fill="#ffffb3" stroke="black" points="457.55,-187 242.45,-187 242.45,-151 457.55,-151 457.55,-187"/>
<text text-anchor="middle" x="350" y="-164.8" font-family="Times,serif" font-size="14.00">WrapperDataFormatingComponent</text>
</g>
<!-- WrapperDataFormatingComponent&#45;&gt;AppModule -->
<g id="edge5" class="edge">
<title>WrapperDataFormatingComponent&#45;&gt;AppModule</title>
<path fill="none" stroke="black" d="M350,-187.25C350,-210.02 350,-246 350,-246 350,-246 1517.04,-246 1517.04,-246"/>
<polygon fill="black" stroke="black" points="1517.04,-249.5 1527.04,-246 1517.04,-242.5 1517.04,-249.5"/>
</g>
<!-- AddrezzComponent -->
<g id="node5" class="node">
<title>AddrezzComponent</title>
<polygon fill="#ffffb3" stroke="black" points="224.24,-187 95.76,-187 95.76,-151 224.24,-151 224.24,-187"/>
<text text-anchor="middle" x="160" y="-164.8" font-family="Times,serif" font-size="14.00">AddrezzComponent</text>
</g>
<!-- AddrezzComponent&#45;&gt;AppModule -->
<g id="edge6" class="edge">
<title>AddrezzComponent&#45;&gt;AppModule</title>
<path fill="none" stroke="black" d="M160,-187.15C160,-210.76 160,-249 160,-249 160,-249 1517.21,-249 1517.21,-249"/>
<polygon fill="black" stroke="black" points="1517.21,-252.5 1527.21,-249 1517.21,-245.5 1517.21,-252.5"/>
</g>
<!-- Slider -->
<g id="node6" class="node">
<title>Slider</title>
<polygon fill="#ffffb3" stroke="black" points="78,-187 24,-187 24,-151 78,-151 78,-187"/>
<text text-anchor="middle" x="51" y="-164.8" font-family="Times,serif" font-size="14.00">Slider</text>
</g>
<!-- Slider&#45;&gt;AppModule -->
<g id="edge7" class="edge">
<title>Slider&#45;&gt;AppModule</title>
<path fill="none" stroke="black" d="M51,-187.01C51,-211.42 51,-252 51,-252 51,-252 1517.21,-252 1517.21,-252"/>
<polygon fill="black" stroke="black" points="1517.21,-255.5 1527.21,-252 1517.21,-248.5 1517.21,-255.5"/>
</g>
<!-- AppComponent  -->
<g id="node25" class="node">
<title>AppComponent </title>
<polygon fill="#80b1d3" stroke="black" points="1623.44,-323 1514.56,-323 1514.56,-287 1623.44,-287 1623.44,-323"/>
<text text-anchor="middle" x="1569" y="-300.8" font-family="Times,serif" font-size="14.00">AppComponent </text>
</g>
<!-- AppModule&#45;&gt;AppComponent  -->
<g id="edge24" class="edge">
<title>AppModule&#45;&gt;AppComponent </title>
<path fill="none" stroke="black" stroke-dasharray="1,5" d="M1569,-255.22C1569,-255.22 1569,-276.73 1569,-276.73"/>
<polygon fill="black" stroke="black" points="1565.5,-276.73 1569,-286.73 1572.5,-276.73 1565.5,-276.73"/>
</g>
<!-- RoomService -->
<g id="node8" class="node">
<title>RoomService</title>
<ellipse fill="#fdb462" stroke="black" cx="800" cy="-104" rx="63.7" ry="18"/>
<text text-anchor="middle" x="800" y="-99.8" font-family="Times,serif" font-size="14.00">RoomService</text>
</g>
<!-- RoomService&#45;&gt;AppComponent -->
<g id="edge2" class="edge">
<title>RoomService&#45;&gt;AppComponent</title>
<path fill="none" stroke="black" d="M800,-122.11C800,-122.11 800,-140.99 800,-140.99"/>
<polygon fill="black" stroke="black" points="796.5,-140.99 800,-150.99 803.5,-140.99 796.5,-140.99"/>
</g>
<!-- BrowserModule -->
<g id="node9" class="node">
<title>BrowserModule</title>
<polygon fill="#8dd3c7" stroke="black" points="2936.47,-187 2933.47,-191 2912.47,-191 2909.47,-187 2829.53,-187 2829.53,-151 2936.47,-151 2936.47,-187"/>
<text text-anchor="middle" x="2883" y="-164.8" font-family="Times,serif" font-size="14.00">BrowserModule</text>
</g>
<!-- BrowserModule&#45;&gt;AppModule -->
<g id="edge8" class="edge">
<title>BrowserModule&#45;&gt;AppModule</title>
<path fill="none" stroke="black" d="M2883,-187.15C2883,-210.76 2883,-249 2883,-249 2883,-249 1620.86,-249 1620.86,-249"/>
<polygon fill="black" stroke="black" points="1620.86,-245.5 1610.86,-249 1620.86,-252.5 1620.86,-245.5"/>
</g>
<!-- AppRoutingModule -->
<g id="node10" class="node">
<title>AppRoutingModule</title>
<polygon fill="#8dd3c7" stroke="black" points="3083.27,-187 3080.27,-191 3059.27,-191 3056.27,-187 2954.73,-187 2954.73,-151 3083.27,-151 3083.27,-187"/>
<text text-anchor="middle" x="3019" y="-164.8" font-family="Times,serif" font-size="14.00">AppRoutingModule</text>
</g>
<!-- AppRoutingModule&#45;&gt;AppModule -->
<g id="edge9" class="edge">
<title>AppRoutingModule&#45;&gt;AppModule</title>
<path fill="none" stroke="black" d="M3019,-187.01C3019,-211.42 3019,-252 3019,-252 3019,-252 1620.83,-252 1620.83,-252"/>
<polygon fill="black" stroke="black" points="1620.83,-248.5 1610.83,-252 1620.83,-255.5 1620.83,-248.5"/>
</g>
<!-- RouterModule  -->
<g id="node27" class="node">
<title>RouterModule </title>
<polygon fill="#fb8072" stroke="black" points="3224.65,-255 3123.35,-255 3123.35,-219 3224.65,-219 3224.65,-255"/>
<text text-anchor="middle" x="3174" y="-232.8" font-family="Times,serif" font-size="14.00">RouterModule </text>
</g>
<!-- AppRoutingModule&#45;&gt;RouterModule  -->
<g id="edge26" class="edge">
<title>AppRoutingModule&#45;&gt;RouterModule </title>
<path fill="none" stroke="black" stroke-dasharray="5,2" d="M3083.39,-175C3125.97,-175 3174,-175 3174,-175 3174,-175 3174,-208.73 3174,-208.73"/>
<polygon fill="black" stroke="black" points="3170.5,-208.73 3174,-218.73 3177.5,-208.73 3170.5,-208.73"/>
</g>
<!-- BrowserAnimationsModule -->
<g id="node11" class="node">
<title>BrowserAnimationsModule</title>
<polygon fill="#8dd3c7" stroke="black" points="2694.3,-187 2691.3,-191 2670.3,-191 2667.3,-187 2521.7,-187 2521.7,-151 2694.3,-151 2694.3,-187"/>
<text text-anchor="middle" x="2608" y="-164.8" font-family="Times,serif" font-size="14.00">BrowserAnimationsModule</text>
</g>
<!-- BrowserAnimationsModule&#45;&gt;AppModule -->
<g id="edge10" class="edge">
<title>BrowserAnimationsModule&#45;&gt;AppModule</title>
<path fill="none" stroke="black" d="M2608,-187.04C2608,-208.66 2608,-242 2608,-242 2608,-242 1620.69,-242 1620.69,-242"/>
<polygon fill="black" stroke="black" points="1620.69,-238.5 1610.69,-242 1620.69,-245.5 1620.69,-238.5"/>
</g>
<!-- MatInputModule -->
<g id="node12" class="node">
<title>MatInputModule</title>
<polygon fill="#8dd3c7" stroke="black" points="2503.65,-187 2500.65,-191 2479.65,-191 2476.65,-187 2392.35,-187 2392.35,-151 2503.65,-151 2503.65,-187"/>
<text text-anchor="middle" x="2448" y="-164.8" font-family="Times,serif" font-size="14.00">MatInputModule</text>
</g>
<!-- MatInputModule&#45;&gt;AppModule -->
<g id="edge11" class="edge">
<title>MatInputModule&#45;&gt;AppModule</title>
<path fill="none" stroke="black" d="M2448,-187.03C2448,-207.77 2448,-239 2448,-239 2448,-239 1620.8,-239 1620.8,-239"/>
<polygon fill="black" stroke="black" points="1620.8,-235.5 1610.8,-239 1620.8,-242.5 1620.8,-235.5"/>
</g>
<!-- MatButtonModule -->
<g id="node13" class="node">
<title>MatButtonModule</title>
<polygon fill="#8dd3c7" stroke="black" points="2374.22,-187 2371.22,-191 2350.22,-191 2347.22,-187 2253.78,-187 2253.78,-151 2374.22,-151 2374.22,-187"/>
<text text-anchor="middle" x="2314" y="-164.8" font-family="Times,serif" font-size="14.00">MatButtonModule</text>
</g>
<!-- MatButtonModule&#45;&gt;AppModule -->
<g id="edge12" class="edge">
<title>MatButtonModule&#45;&gt;AppModule</title>
<path fill="none" stroke="black" d="M2314,-187.31C2314,-207.15 2314,-236 2314,-236 2314,-236 1620.92,-236 1620.92,-236"/>
<polygon fill="black" stroke="black" points="1620.92,-232.5 1610.92,-236 1620.92,-239.5 1620.92,-232.5"/>
</g>
<!-- MatSelectModule -->
<g id="node14" class="node">
<title>MatSelectModule</title>
<polygon fill="#8dd3c7" stroke="black" points="2236.31,-187 2233.31,-191 2212.31,-191 2209.31,-187 2119.69,-187 2119.69,-151 2236.31,-151 2236.31,-187"/>
<text text-anchor="middle" x="2178" y="-164.8" font-family="Times,serif" font-size="14.00">MatSelectModule</text>
</g>
<!-- MatSelectModule&#45;&gt;AppModule -->
<g id="edge13" class="edge">
<title>MatSelectModule&#45;&gt;AppModule</title>
<path fill="none" stroke="black" d="M2178,-187.17C2178,-206.09 2178,-233 2178,-233 2178,-233 1620.86,-233 1620.86,-233"/>
<polygon fill="black" stroke="black" points="1620.86,-229.5 1610.86,-233 1620.86,-236.5 1620.86,-229.5"/>
</g>
<!-- MatRadioModule -->
<g id="node15" class="node">
<title>MatRadioModule</title>
<polygon fill="#8dd3c7" stroke="black" points="2101.54,-187 2098.54,-191 2077.54,-191 2074.54,-187 1986.46,-187 1986.46,-151 2101.54,-151 2101.54,-187"/>
<text text-anchor="middle" x="2044" y="-164.8" font-family="Times,serif" font-size="14.00">MatRadioModule</text>
</g>
<!-- MatRadioModule&#45;&gt;AppModule -->
<g id="edge14" class="edge">
<title>MatRadioModule&#45;&gt;AppModule</title>
<path fill="none" stroke="black" d="M2044,-187C2044,-204.68 2044,-229 2044,-229 2044,-229 1620.74,-229 1620.74,-229"/>
<polygon fill="black" stroke="black" points="1620.74,-225.5 1610.74,-229 1620.74,-232.5 1620.74,-225.5"/>
</g>
<!-- MatCardModule -->
<g id="node16" class="node">
<title>MatCardModule</title>
<polygon fill="#8dd3c7" stroke="black" points="1968.81,-187 1965.81,-191 1944.81,-191 1941.81,-187 1859.19,-187 1859.19,-151 1968.81,-151 1968.81,-187"/>
<text text-anchor="middle" x="1914" y="-164.8" font-family="Times,serif" font-size="14.00">MatCardModule</text>
</g>
<!-- MatCardModule&#45;&gt;AppModule -->
<g id="edge15" class="edge">
<title>MatCardModule&#45;&gt;AppModule</title>
<path fill="none" stroke="black" d="M1914,-187.04C1914,-203.73 1914,-226 1914,-226 1914,-226 1620.96,-226 1620.96,-226"/>
<polygon fill="black" stroke="black" points="1620.96,-222.5 1610.96,-226 1620.96,-229.5 1620.96,-222.5"/>
</g>
<!-- ReactiveFormsModule -->
<g id="node17" class="node">
<title>ReactiveFormsModule</title>
<polygon fill="#8dd3c7" stroke="black" points="1841.3,-187 1838.3,-191 1817.3,-191 1814.3,-187 1696.7,-187 1696.7,-151 1841.3,-151 1841.3,-187"/>
<text text-anchor="middle" x="1769" y="-164.8" font-family="Times,serif" font-size="14.00">ReactiveFormsModule</text>
</g>
<!-- ReactiveFormsModule&#45;&gt;AppModule -->
<g id="edge16" class="edge">
<title>ReactiveFormsModule&#45;&gt;AppModule</title>
<path fill="none" stroke="black" d="M1769,-187.28C1769,-202.95 1769,-223 1769,-223 1769,-223 1620.93,-223 1620.93,-223"/>
<polygon fill="black" stroke="black" points="1620.93,-219.5 1610.93,-223 1620.93,-226.5 1620.93,-219.5"/>
</g>
<!-- FormsModule -->
<g id="node18" class="node">
<title>FormsModule</title>
<polygon fill="#8dd3c7" stroke="black" points="1678.83,-187 1675.83,-191 1654.83,-191 1651.83,-187 1583.17,-187 1583.17,-151 1678.83,-151 1678.83,-187"/>
<text text-anchor="middle" x="1631" y="-164.8" font-family="Times,serif" font-size="14.00">FormsModule</text>
</g>
<!-- FormsModule&#45;&gt;AppModule -->
<g id="edge17" class="edge">
<title>FormsModule&#45;&gt;AppModule</title>
<path fill="none" stroke="black" d="M1597.08,-187.22C1597.08,-187.22 1597.08,-208.73 1597.08,-208.73"/>
<polygon fill="black" stroke="black" points="1593.58,-208.73 1597.08,-218.73 1600.58,-208.73 1593.58,-208.73"/>
</g>
<!-- MatSliderModule -->
<g id="node19" class="node">
<title>MatSliderModule</title>
<polygon fill="#8dd3c7" stroke="black" points="1565.54,-187 1562.54,-191 1541.54,-191 1538.54,-187 1450.46,-187 1450.46,-151 1565.54,-151 1565.54,-187"/>
<text text-anchor="middle" x="1508" y="-164.8" font-family="Times,serif" font-size="14.00">MatSliderModule</text>
</g>
<!-- MatSliderModule&#45;&gt;AppModule -->
<g id="edge18" class="edge">
<title>MatSliderModule&#45;&gt;AppModule</title>
<path fill="none" stroke="black" d="M1546.47,-187.22C1546.47,-187.22 1546.47,-208.73 1546.47,-208.73"/>
<polygon fill="black" stroke="black" points="1542.97,-208.73 1546.47,-218.73 1549.97,-208.73 1542.97,-208.73"/>
</g>
<!-- MatSlideToggleModule -->
<g id="node20" class="node">
<title>MatSlideToggleModule</title>
<polygon fill="#8dd3c7" stroke="black" points="1432.04,-187 1429.04,-191 1408.04,-191 1405.04,-187 1281.96,-187 1281.96,-151 1432.04,-151 1432.04,-187"/>
<text text-anchor="middle" x="1357" y="-164.8" font-family="Times,serif" font-size="14.00">MatSlideToggleModule</text>
</g>
<!-- MatSlideToggleModule&#45;&gt;AppModule -->
<g id="edge19" class="edge">
<title>MatSlideToggleModule&#45;&gt;AppModule</title>
<path fill="none" stroke="black" d="M1357,-187.28C1357,-202.95 1357,-223 1357,-223 1357,-223 1517.12,-223 1517.12,-223"/>
<polygon fill="black" stroke="black" points="1517.12,-226.5 1527.12,-223 1517.12,-219.5 1517.12,-226.5"/>
</g>
<!-- MatGridListModule -->
<g id="node21" class="node">
<title>MatGridListModule</title>
<polygon fill="#8dd3c7" stroke="black" points="1263.54,-187 1260.54,-191 1239.54,-191 1236.54,-187 1134.46,-187 1134.46,-151 1263.54,-151 1263.54,-187"/>
<text text-anchor="middle" x="1199" y="-164.8" font-family="Times,serif" font-size="14.00">MatGridListModule</text>
</g>
<!-- MatGridListModule&#45;&gt;AppModule -->
<g id="edge20" class="edge">
<title>MatGridListModule&#45;&gt;AppModule</title>
<path fill="none" stroke="black" d="M1199,-187.04C1199,-203.73 1199,-226 1199,-226 1199,-226 1517.28,-226 1517.28,-226"/>
<polygon fill="black" stroke="black" points="1517.28,-229.5 1527.28,-226 1517.28,-222.5 1517.28,-229.5"/>
</g>
<!-- MatMenuModule -->
<g id="node22" class="node">
<title>MatMenuModule</title>
<polygon fill="#8dd3c7" stroke="black" points="1116.26,-187 1113.26,-191 1092.26,-191 1089.26,-187 1001.74,-187 1001.74,-151 1116.26,-151 1116.26,-187"/>
<text text-anchor="middle" x="1059" y="-164.8" font-family="Times,serif" font-size="14.00">MatMenuModule</text>
</g>
<!-- MatMenuModule&#45;&gt;AppModule -->
<g id="edge21" class="edge">
<title>MatMenuModule&#45;&gt;AppModule</title>
<path fill="none" stroke="black" d="M1059,-187C1059,-204.68 1059,-229 1059,-229 1059,-229 1517.26,-229 1517.26,-229"/>
<polygon fill="black" stroke="black" points="1517.26,-232.5 1527.26,-229 1517.26,-225.5 1517.26,-232.5"/>
</g>
<!-- MatIconModule -->
<g id="node23" class="node">
<title>MatIconModule</title>
<polygon fill="#8dd3c7" stroke="black" points="983.47,-187 980.47,-191 959.47,-191 956.47,-187 876.53,-187 876.53,-151 983.47,-151 983.47,-187"/>
<text text-anchor="middle" x="930" y="-164.8" font-family="Times,serif" font-size="14.00">MatIconModule</text>
</g>
<!-- MatIconModule&#45;&gt;AppModule -->
<g id="edge22" class="edge">
<title>MatIconModule&#45;&gt;AppModule</title>
<path fill="none" stroke="black" d="M930,-187.17C930,-206.09 930,-233 930,-233 930,-233 1517.07,-233 1517.07,-233"/>
<polygon fill="black" stroke="black" points="1517.07,-236.5 1527.07,-233 1517.07,-229.5 1517.07,-236.5"/>
</g>
<!-- LayoutModule -->
<g id="node24" class="node">
<title>LayoutModule</title>
<polygon fill="#8dd3c7" stroke="black" points="2811.71,-187 2808.71,-191 2787.71,-191 2784.71,-187 2712.29,-187 2712.29,-151 2811.71,-151 2811.71,-187"/>
<text text-anchor="middle" x="2762" y="-164.8" font-family="Times,serif" font-size="14.00">LayoutModule</text>
</g>
<!-- LayoutModule&#45;&gt;AppModule -->
<g id="edge23" class="edge">
<title>LayoutModule&#45;&gt;AppModule</title>
<path fill="none" stroke="black" d="M2762,-187.25C2762,-210.02 2762,-246 2762,-246 2762,-246 1620.76,-246 1620.76,-246"/>
<polygon fill="black" stroke="black" points="1620.76,-242.5 1610.76,-246 1620.76,-249.5 1620.76,-242.5"/>
</g>
<!-- RouterModule.forRoot(args) -->
<g id="node26" class="node">
<title>RouterModule.forRoot(args)</title>
<polygon fill="#8dd3c7" stroke="black" points="3426.84,-255 3423.84,-259 3402.84,-259 3399.84,-255 3249.16,-255 3249.16,-219 3426.84,-219 3426.84,-255"/>
<text text-anchor="middle" x="3338" y="-232.8" font-family="Times,serif" font-size="14.00">RouterModule.forRoot(args)</text>
</g>
<!-- RouterModule.forRoot(args)&#45;&gt;AppRoutingModule -->
<g id="edge25" class="edge">
<title>RouterModule.forRoot(args)&#45;&gt;AppRoutingModule</title>
<path fill="none" stroke="black" d="M3338,-218.71C3338,-196.79 3338,-163 3338,-163 3338,-163 3093.55,-163 3093.55,-163"/>
<polygon fill="black" stroke="black" points="3093.55,-159.5 3083.55,-163 3093.55,-166.5 3093.55,-159.5"/>
</g>
</g>
</svg>
